<?xml version="1.0" encoding="UTF-8" standalone="no"?>
<svg
   viewBox="-10 -10 854.86859 101.82453"
   version="1.1"
   stroke-linecap="round"
   stroke-linejoin="round"
   fill="none"
   stroke="#2b0096"
   stroke-width="6.85"
   id="svg278"
   sodipodi:docname="CubicBezier.svg"
   width="854.86859"
   height="101.82453"
   inkscape:version="1.2.2 (b0a8486, 2022-12-01)"
   xmlns:inkscape="http://www.inkscape.org/namespaces/inkscape"
   xmlns:sodipodi="http://sodipodi.sourceforge.net/DTD/sodipodi-0.dtd"
   xmlns="http://www.w3.org/2000/svg"
   xmlns:svg="http://www.w3.org/2000/svg">
  <defs
     id="defs282" />
  <sodipodi:namedview
     id="namedview280"
     pagecolor="#ffffff"
     bordercolor="#666666"
     borderopacity="1.0"
     inkscape:showpageshadow="2"
     inkscape:pageopacity="0.0"
     inkscape:pagecheckerboard="0"
     inkscape:deskcolor="#d1d1d1"
     showgrid="false"
     inkscape:zoom="0.78864971"
     inkscape:cx="759.52605"
     inkscape:cy="57.693548"
     inkscape:window-width="1655"
     inkscape:window-height="791"
     inkscape:window-x="0"
     inkscape:window-y="25"
     inkscape:window-maximized="0"
     inkscape:current-layer="svg278" />
  <path
     d="m -4.827432,-4.3205949 c 2.123,-0.456 4.23899999,-0.947 6.3689996,-1.367 2.22,-0.437 6.179,-1.6739996 8.274,-0.077 11.5320004,8.794 -29.8239996,25.3309999 -11.7599996,21.9099999 2.70199959,-0.512 5.4719996,-0.902 8.1389996,-1.557 3.1,-0.761 5.4900004,-1.45 8.8430004,-2.018"
     id="path192"
     sodipodi:nodetypes="cccccc" />
  <path
     d="m 29.273568,22.879405 c -1.93,12.703 -6.315,26.438 -7.497,39.202 -0.268,2.886 -1.125,8.826 1.794,3.575"
     id="path194"
     sodipodi:nodetypes="ccc" />
  <path
     d="m 25.428568,24.032405 c 1.15,-0.35 24.686,-8.851 26.338,0.807 1.396,8.167 -9.197,14.485 -15.893,15.277 -2.701,0.32 -5.867,-0.268 -8.458,-1.095 -0.98,-0.313 -3.648,-1.783 -2.884,-1.095 1.413,1.271 3.289,0.582 4.358,3.055"
     id="path196"
     sodipodi:nodetypes="cccccc" />
  <path
     d="m 41.577568,66.693405 c 3.204,-3.343 6.375,-6.719 9.612,-10.031 4.477,-4.581 -1.356,0.142 -2.179,2.364 -2.269,6.123 -1.796,13.173 -3.909,19.255 -0.233,0.672 -0.359,-1.561 0.064,-2.133"
     id="path198"
     sodipodi:nodetypes="ccccc" />
  <path
     d="m 89.231568,38.575405 c -1.214,9.326 -2.499,18.208 -2.499,27.096 0,1.827 1.81,-3.308 1.922,-5.131"
     id="path202" />
  <path
     d="m 76.222568,52.354405 c 6.954,-1.14 17.102999,-1.643 24.351002,-4.151"
     id="path204" />
  <path
     d="m 109.94157,29.975405 c 21.148,-4.992 18.942,9.362 7.689,19.486 -0.099,0.089 0.274,-0.041 0.385,-0.115 3.253,-2.196 9.185,-0.199 12.175,0.518 8.548,2.051 6.536,14.438 5.639,20.351 -1.337,8.827 -30.899,-2.259 -22.3,5.477"
     id="path206" />
  <path
     d="m 156.07957,23.748405 c 0.056,11.669 -1.081,19.546 -4.229,30.267 -0.306,1.041 -3.677,14.095 -2.884,13.952 7.52,-1.353 9.896,-8.261 18.007,-4.612"
     id="path208" />
  <path
     d="m 143.13557,46.867405 c 11.258,-4.919 20.578,-8.469 32.809,-7.034"
     id="path210" />
  <path
     d="m 175.62457,26.170405 c 13.15,-21.4279999 15.357,20.12 -3.332,20.12 -1.645,0 3.296,0.205 4.934,0.058 4.421,-0.398 14.418,-1.257 9.997,3.516"
     id="path212" />
  <path
     d="m 222.52057,20.656405 c -7.086,9.273 -16.248,19.596 -18.775,31.42 -1.506,7.043 3.619,12.802 8.202,17.411 0.314,0.316 3.425,3.721 3.204,3.92 -1.011,0.909 -3.163,-2.015 -3.973,-0.923"
     id="path214" />
  <path
     d="m 234.14957,32.570405 c -1.296,5.755 -9.825,26.223 -6.088,27.904"
     id="path216" />
  <path
     d="m 238.57457,49.398405 c 3.678,1.957 6.988,5.463 11.15,5.65 1.76,0.079 4.44,-0.879 3.076,0.173"
     id="path218" />
  <path
     d="m 272.87357,26.000405 c -0.179,13.557 -2.424,25.847 -6.985,38.568 -0.168,0.47 -1.148,3.005 -0.769,3.517 0.101,0.137 14.587,-3.716 14.867,-5.477"
     id="path220" />
  <path
     d="m 263.26157,45.832405 c 4.488,0.037 17.896,-0.205 13.457,0.461"
     id="path222" />
  <path
     d="m 296.33457,21.119405 c 6.083,12.997 12.427,33.722 9.42,48.6 -0.912,4.514 -13.777,2.048 -13.777,7.494 0,1.764 6.647,-3.376 7.049,-5.304"
     id="path224" />
  <path
     d="m 327.25957,24.529405 c 1.753,13.745 -0.692,22.591 -1.41,35.513 -0.122,2.195 2.211,1.318 1.282,-0.98"
     id="path226" />
  <path
     d="m 320.78757,22.915405 c 4.037,-2.306 7.996,-4.755 12.111,-6.918 7.438,-3.909 17.435,14.045 14.739,20.351 -3.582,8.379 -12.144,3.2 -14.931,5.707"
     id="path228" />
  <path
     d="m 342.23257,59.495405 c 2.677,0.076 14.532,-3.013 11.983,2.882 -2.028,4.694 -6.258,8.571 -9.996,11.934 -1.639,1.475 -7.919,3.55 -6.28,2.076 9.359,-8.421 38.716,4.927 25.696,3.862"
     id="path230" />
  <path
     d="m 377.35257,30.203405 c 0.41,3.13 3.763,27.616 -0.577,18.506"
     id="path232" />
  <path
     d="m 367.48257,43.232405 c 7.347,0.782 13.324,2.036 19.481,2.652"
     id="path234" />
  <path
     d="m 409.17257,20.633405 c 0,10.619 0.784,24.468 -4.038,34.59 -0.141,0.296 -0.956,2.199 -0.833,2.421 0.099,0.178 9.437,-3.464 10.638,-3.689 1.234,-0.232 8.664,-0.669 8.459,-1.038"
     id="path236" />
  <path
     d="m 403.27257,38.908405 c 8.183,0.437 12.019,0.231 18.648,0.231"
     id="path238" />
  <path
     d="m 429.21257,5.9974051 c 4.833,-2.481 13.472,-10.053 15.507,-5.01599998 2.233,5.52399998 -2.999,10.14799988 -6.856,13.20199988 -2.008,1.59 -6.537,6.597 -6.537,4.036 0,-1.573 13.815,-3.011 13.329,3.978 -0.296,4.26 -5.433,11.148 -9.612,12.222 -2.151,0.553 -12.493,-4.247 -8.01,-3.574"
     id="path240" />
  <path
     d="m 468.49257,22.823405 c -1.961,12.653 -3.063,25.533 -5.64,38.05 -0.61,2.964 1.538,0.869 1.538,-1.211"
     id="path242" />
  <path
     d="m 460.61257,22.189405 c 4.792,-6.043 7.133,-10.751 13.457,-13.9509999 9.321,-4.717 26.246,-0.742 30.054,9.9159999 4.28,11.979 -32.255,25.791 -28.068,21.734"
     id="path244" />
  <path
     d="m 483.93257,62.718405 c 11.16,-6.674 18.113,7.269 5.575,10.089 -2.564,0.576 5.318,-0.75 7.882,-0.173 3.731,0.839 8.057,5.589 6.473,9.627 -7.858,20.031005 -36.494,-17.119 -30.888,3.056"
     id="path246" />
  <path
     d="m 528.08257,59.584405 c -0.454,-1.023 1.431,4.209 1.026,7.033 -0.875,6.098 -3.538,8.736 -8.139,11.761"
     id="path250" />
  <g
     id="g274"
     transform="translate(-668.00743,-9.9845945)">
    <title
       id="title252">Bézier Curve Input Domain, t is from the [0,1] set</title>
    <path
       d="m 1253.64,21.603 c -1.21,3.313 -13.303,33.785 -12.367,37.992 0.431,1.94 4.09,-0.672 5.959,0 3.575,1.287 6.046,2.158 9.548,0.058"
       id="path254" />
    <path
       d="m 1241.98,46.566 c 7.637,-2.926 17.797,-8.667 26.081,-3.344"
       id="path256" />
    <path
       d="m 1319.45,33.839 c -1.699,-1.444 -0.933,-3.241 -3.874,-4.669 -9.769,-4.743 -38.237,18.961 -30.291,28.934 4.415,5.541 24.255,10.164 28.765,4.469"
       id="path258" />
    <path
       d="m 1289.55,52.863 c 6.989,-3.071 15.197,-5.286 22.685,-6.457 1.113,-0.175 3.332,-1.704 3.332,-0.577 0,1.635 -2.444,2.365 -2.948,3.921"
       id="path260" />
    <path
       d="m 1371.94,24.088 c -12.855,-6.186 -17.337,-5.18 -28.26,2.191 -1.872,1.263 3.743,2.844 4.678,4.9 2.041,4.489 1.487,10.125 0.448,14.874 -3.874,17.717 -3.42,32.112 -3.012,32.112 5.726,0 20.238,4.257 22.365,-4.036"
       id="path262" />
    <path
       d="m 1384.26,31.206 c -5.098,6.97 -6.813,8.404 -9.484,14.009 -16.579,34.803 25.278,26.958 36.206,-2.536 0.827,-2.232 3.707,-7.007 2.115,-9.513 -4.227,-6.655 -22.112,5.625 -21.66,14.989"
       id="path264" />
    <path
       d="m 1419.19,65.74 c -2.148,5.874 -4.057,9.83 -5.255,15.22"
       id="path266" />
    <path
       d="m 1432.19,47.993 c 7.115,-4.225 17.802,-13.024 25.889,-16.661 1.17,-0.527 -2.277,1.246 -3.204,2.133 -2.007,1.918 -3.233,4.229 -4.486,6.687 -3.037,5.962 -11.134,29.92 -10.381,27.212"
       id="path268" />
    <path
       d="m 1431.87,73.244 c 8.707,2.424 14.396,5.19 22.556,3.574 0.701,-0.138 8.332,-1.729 3.909,-1.729"
       id="path270" />
    <path
       d="m 1480.23,25.238 c 1.091,0.068 29.221,1.406 29.221,1.441 0,10.116 -8.428,22.326 -9.804,32.977 -0.595,4.601 -0.577,16.871 -0.577,16.546 0,-1.484 -19.695,6.841 -22.301,4.496 -0.239,-0.215 6.283,0.714 7.434,1.038"
       id="path272" />
  </g>
</svg>
